<svg id="visual" viewBox="0 0 900 600" width="900" height="600" xmlns="http://www.w3.org/2000/svg" xmlns:xlink="http://www.w3.org/1999/xlink" version="1.1"><rect x="0" y="0" width="900" height="600" fill="#FCAF3C"></rect><path d="M0 230L13.7 237C27.3 244 54.7 258 82 259.3C109.3 260.7 136.7 249.3 163.8 244.7C191 240 218 242 245.2 247.3C272.3 252.7 299.7 261.3 327 264.2C354.3 267 381.7 264 409 257C436.3 250 463.7 239 491 236.3C518.3 233.7 545.7 239.3 573 248.7C600.3 258 627.7 271 654.8 273.2C682 275.3 709 266.7 736.2 259C763.3 251.3 790.7 244.7 818 240.2C845.3 235.7 872.7 233.3 886.3 232.2L900 231L900 0L886.3 0C872.7 0 845.3 0 818 0C790.7 0 763.3 0 736.2 0C709 0 682 0 654.8 0C627.7 0 600.3 0 573 0C545.7 0 518.3 0 491 0C463.7 0 436.3 0 409 0C381.7 0 354.3 0 327 0C299.7 0 272.3 0 245.2 0C218 0 191 0 163.8 0C136.7 0 109.3 0 82 0C54.7 0 27.3 0 13.7 0L0 0Z" fill="#001122"></path><path d="M0 159L13.7 156.3C27.3 153.7 54.7 148.3 82 146.2C109.3 144 136.7 145 163.8 142.7C191 140.3 218 134.7 245.2 129.2C272.3 123.7 299.7 118.3 327 117.5C354.3 116.7 381.7 120.3 409 128.7C436.3 137 463.7 150 491 155.3C518.3 160.7 545.7 158.3 573 153.5C600.3 148.7 627.7 141.3 654.8 136.8C682 132.3 709 130.7 736.2 133.2C763.3 135.7 790.7 142.3 818 144.2C845.3 146 872.7 143 886.3 141.5L900 140L900 0L886.3 0C872.7 0 845.3 0 818 0C790.7 0 763.3 0 736.2 0C709 0 682 0 654.8 0C627.7 0 600.3 0 573 0C545.7 0 518.3 0 491 0C463.7 0 436.3 0 409 0C381.7 0 354.3 0 327 0C299.7 0 272.3 0 245.2 0C218 0 191 0 163.8 0C136.7 0 109.3 0 82 0C54.7 0 27.3 0 13.7 0L0 0Z" fill="#001122"></path></svg>